<?xml version="1.0" encoding="utf-8"?>
<?xml-stylesheet type="text/xsl" href="rss1.xsl"?>
<rss version="2.0" xmlns:atom="http://www.w3.org/2005/Atom" xmlns:content="http://purl.org/rss/1.0/modules/content/" xmlns:dc="http://purl.org/dc/elements/1.1/" xmlns:media="http://search.yahoo.com/mrss/">
<channel>
 <title>Getty</title>
 <link>http://www.gettyimg.com/</link>
 <atom:link href="http://www.gettyimg.com/" rel="self" type="application/rss+xml" />

 
                <item>
                <title><![CDATA[【Requests】[REQ AUD] - Closehead - new single please (flac)]]></title>
                <link><![CDATA[https://sharemania.us/threads/closehead-new-single-please-flac.240249/]]></link>
                <description><![CDATA[<article>
<blockquote class="messageText SelectQuoteContainer ugc baseHtml">
Closehead - Lagu Anak<br>
<a href="https://www.qobuz.com/dk-en/album/lagu-anak-closehead/yb9s9zudv4yua" target="_blank" class="externalLink" rel="nofollow">https://www.qobuz.com/dk-en/album/lagu-anak-closehead/yb9s9zudv4yua</a><br>
<br>
Kangen Band - Maha cinta<br>
<a href="https://www.qobuz.com/dk-en/album/maha-cinta-kangen-band/yimoo9y3y0mhb" target="_blank" class="externalLink" rel="nofollow">https://www.qobuz.com/dk-en/album/maha-cinta-kangen-band/yimoo9y3y0mhb</a><br>
<br>
Drive - Mesti Menang<br>
<a href="https://www.qobuz.com/dk-en/album/mesti-menang-drive/pd9celk1ajz9b" target="_blank" class="externalLink" rel="nofollow">https://www.qobuz.com/dk-en/album/mesti-menang-drive/pd9celk1ajz9b</a>
<div class="messageTextEndMarker">&nbsp;</div>
</blockquote>
</article>]]></description>
                <author><![CDATA[Dora12]]></author>
                </item>

                
                <item>
                <title><![CDATA[【Music Videos】Aleste - Hay Un Limite (Clean)]]></title>
                <link><![CDATA[https://sharemania.us/threads/aleste-hay-un-limite-clean.240250/]]></link>
                <description><![CDATA[<article>
<blockquote class="messageText SelectQuoteContainer ugc baseHtml">
<img src="https://i.ibb.co/4JCFsY1/Aleste-Hay-Un-Limite-vob-thumbs-2024-03-18-17-07-32.jpg" class="bbCodeImage LbImage" alt="[​IMG]" data-url="https://i.ibb.co/4JCFsY1/Aleste-Hay-Un-Limite-vob-thumbs-2024-03-18-17-07-32.jpg" style=""> <br>
<br>
<div class="ToggleTriggerAnchor bbCodeSpoilerContainer">
<button type="button" class="button bbCodeSpoilerButton ToggleTrigger Tooltip JsOnly" data-target="> .SpoilerTarget"><span>Spoiler: <span class="SpoilerTitle">MediaInfo</span></span></button>
<div class="SpoilerTarget bbCodeSpoilerText">Aleste-Hay Un Limite.vob<br>
Format : MPEG-PS<br>
File size : 267 MiB<br>
Duration : 3 min 50 s<br>
Overall bit rate mode : Constant<br>
Overall bit rate : 9 701 kb/s<br>
Frame rate : 29.970 FPS<br>
Writing library : encoded by TMPGEnc (ver. 2.524.63.181)<br>
<br>
Video<br>
ID : 224 (0xE0)<br>
Format : MPEG Video<br>
Format version : Version 2<br>
Format profile : Main@Main<br>
Format settings : CustomMatrix / BVOP<br>
Format settings, BVOP : Yes<br>
Format settings, Matrix : Custom<br>
Format settings, GOP : M=3, N=16<br>
Format settings, picture st : Frame<br>
Duration : 3 min 50 s<br>
Bit rate mode : Constant<br>
Bit rate : 8 000 kb/s<br>
Width : 720 pixels<br>
Height : 480 pixels<br>
Display aspect ratio : 4:3<br>
Frame rate : 29.970 (30000/1001) FPS<br>
Standard : NTSC<br>
Color space : YUV<br>
Chroma subsampling : 4:2:0<br>
Bit depth : 8 bits<br>
Scan type : Interlaced<br>
Scan order : Bottom Field First<br>
Compression mode : Lossy<br>
Bits/(Pixel*Frame) : 0.772<br>
Time code of first frame : 00:00:00:00<br>
Time code source : Group of pictures header<br>
GOP, Open/Closed : Closed<br>
Stream size : 219 MiB (82%)<br>
Writing library : TMPGEnc 2.524.63.181<br>
Color primaries : BT.601 NTSC<br>
Transfer characteristics : BT.601<br>
Matrix coefficients : BT.601<br>
<br>
Audio<br>
ID : 189 (0xBD)-160 (0xA0)<br>
Format : PCM<br>
Format settings : Big / Signed<br>
Muxing mode : DVD-Video<br>
Duration : 3 min 50 s<br>
Bit rate mode : Constant<br>
Bit rate : 1 536 kb/s<br>
Channel(s) : 2 channels<br>
Sampling rate : 48.0 kHz<br>
Bit depth : 16 bits<br>
Stream size : 42.2 MiB (16%)</div>
</div><br>
<div class="bbCodeBlock bbCodeVfcHH HiddenContent">
<div class="attribution type">Hidden Content:</div>
<blockquote>You must reply before you can see the hidden data contained here.</blockquote>
</div>
<div class="messageTextEndMarker">&nbsp;</div>
</blockquote>
</article>]]></description>
                <author><![CDATA[DJ-RoGeRs-BS]]></author>
                </item>

                </channel></rss>